<?xml version="1.0" encoding="utf-8"?>
<!-- Generator: Adobe Illustrator 27.5.0, SVG Export Plug-In . SVG Version: 6.00 Build 0)  -->
<svg version="1.1" id="Lager_1" xmlns="http://www.w3.org/2000/svg" xmlns:xlink="http://www.w3.org/1999/xlink" x="0px" y="0px"
	 viewBox="0 0 402.92 402.92" style="enable-background:new 0 0 402.92 402.92;" xml:space="preserve" width="45" height="45">
<style type="text/css">
	.st0{fill:#95C7ED;}
</style>
<path class="st0" d="M201.49,0C90.21,0,0,90.75,0,202.68c0,101.18,73.73,185.08,170.1,200.24V261.21h-51.48v-58.52h51.48l0.05-44.67
	c0-50.81,29.93-78.95,75.95-78.95c22.04,0,44.94,4.29,44.94,4.29v49.56h-25.28c-25.01,0-33.01,15.76-33.01,31.79l0.05,38.04h55.96
	l-8.97,58.47h-47v141.66c96.37-15.16,170.1-99,170.1-200.24C402.92,90.75,312.71,0,201.49,0z"/>
</svg>