<?xml version="1.0" encoding="utf-8"?>
<!-- Generator: Adobe Illustrator 26.3.1, SVG Export Plug-In . SVG Version: 6.00 Build 0)  -->
<svg version="1.1" id="Layer_1" xmlns="http://www.w3.org/2000/svg" xmlns:xlink="http://www.w3.org/1999/xlink" x="0px" y="0px"
	 viewBox="0 0 654.6 162.8" style="enable-background:new 0 0 654.6 162.8;" xml:space="preserve">
<style type="text/css">
	.st0{fill:#002060;}
</style>
<path class="st0" d="M549.3,143.7c7.6,1.2,14.2,2.2,21.5,3.7l9.1-21.3l41.9,7.8l9.3,23.7c7.6,1.2,15.9,2.9,23.5,4.9L613.7,58
	l1.2-3.2L588,49.9l1.2,3.2L549.3,143.7L549.3,143.7z M587.3,108.2l13-30.1l13.5,35L587.3,108.2L587.3,108.2z M306.7,127.3
	c26.2-0.2,43.6-0.2,68.3,1l-14.7-20.8l-31.3-0.2V30.6l2.5-3.4l-27.2,0.2l2.5,3.4C306.7,124.1,306.7,127.6,306.7,127.3L306.7,127.3
	L306.7,127.3z M2.5,162.8c5.4-1.2,15.7-3.4,21.3-4.4v-33.1l18.1-3.9l21.8,29.4c6.1-1.2,36.2-6.4,43.6-7.6l8.8-23.5l42.6-5.4
	l9.1,21.3c7.8-0.7,14.4-1.5,22.3-2l-41.4-92.3l1.2-3.7l-27.4,3.4l2,3.2l-39.2,99.9l-22.8-29.4C74.9,109.7,84,96.5,84,80.3
	C84,60.5,68,48.7,45,53.6L0,63.4l2.4,2.9L2.5,162.8L2.5,162.8z M23.8,104.8V78.6l21.3-4.6C55.6,72,62,75.7,62,83.7
	c0,8.6-7.6,14.7-16.4,16.4L23.8,104.8L23.8,104.8z M123.9,99.2l13.2-34.8l13.5,31.3L123.9,99.2L123.9,99.2z M192.4,133.2
	c7.3-0.7,14.7-1.2,22-1.7V67.1l26.2,39.9h2l25.7-43.6v64.9c7.6-0.5,14.7-0.5,22-0.7V30.9l2.5-3.4l-26.4,1l-25,40.9l-25-37.9
	L190,33.5l2.5,2.9L192.4,133.2L192.4,133.2z M643.1,80.6c6.6,0,11.5-5.1,11.5-11.5c0-6.4-4.9-11.5-11.3-11.5
	c-6.6,0-11.8,5.1-11.8,11.5S636.7,80.6,643.1,80.6L643.1,80.6L643.1,80.6z M638.7,74.7h2.5v-3.9h2l2.2,3.9h2.9l-2.7-4.2
	c2-0.5,2.7-1.7,2.7-3.4c0-2.9-2.5-3.7-4.7-3.7h-4.9V74.7L638.7,74.7z M641.1,68.8v-3.4h2.5c1.2,0,2,0.7,2,2c0,0.7-0.5,1.5-2,1.5
	L641.1,68.8L641.1,68.8z M421.8,132.2c27.4,0,46.5-23,46.5-48.5c0-31.6-22-55.3-54.6-55.3c-27.7,0-47.2,23-47.2,50.2
	C366.5,110.2,391.7,132.2,421.8,132.2L421.8,132.2L421.8,132.2z M420.1,111.9c-18.1,0-31.3-15.7-31.3-32.1
	c0-18.1,10.8-31.1,26.4-31.1c19.6,0,31.3,16.2,31.3,33.8C446.5,98.7,435.7,111.9,420.1,111.9L420.1,111.9L420.1,111.9z M396.6,22
	c6.1,0,11-4.9,11-11s-4.9-11-11-11s-11,4.9-11,11C385.6,17.2,390.5,22,396.6,22L396.6,22L396.6,22z M437.5,23.5c6.1,0,11-4.9,11-11
	s-4.9-11-11-11s-11,4.9-11,11C426.4,18.6,431.3,23.5,437.5,23.5L437.5,23.5L437.5,23.5z M467.6,120.9c13,12.7,33.8,20.1,51.4,20.1
	c16.9,0,32.6-10,32.6-27.7S540.3,87.6,520,79.8c-14-5.4-21.5-8.8-21.5-16.2c0-4.2,4.4-7.3,11-7.3c8.6,0,16.7,3.4,27.7,12.2
	l11.5-14.9c-10.8-10.3-26-16.7-41.9-16.7c-16.4,0-30.3,10-30.3,26.7c0,20.3,16.7,28.1,33.3,34.3c16.9,6.1,20.3,9.8,20.3,15.4
	c0,6.1-8.3,7.8-13.7,7.8c-12,0-22-4.6-33.5-14.7L467.6,120.9L467.6,120.9z M643.1,78.1c-4.9,0-9.1-4.2-9.1-9.1s4.2-9.1,9.3-9.1
	c4.9,0,8.8,4.2,8.8,9.1C652.1,73.9,648.2,78.1,643.1,78.1L643.1,78.1z"/>
</svg>
